<svg id="Слой_1" data-name="Слой 1" xmlns="http://www.w3.org/2000/svg" viewBox="0 0 787.91 250.73"><path d="M304.55,25.39H272.32v136.1a40,40,0,0,0,40,40h14.83V173.25H313.67a9.12,9.12,0,0,1-9.12-9.13Z"/><path d="M438.94,73.86a74.93,74.93,0,0,0-71.58,0A69.2,69.2,0,0,0,341.9,98.71q-9.48,15.75-9.47,35.91t9.47,35.92a68.75,68.75,0,0,0,25.58,24.84,71.47,71.47,0,0,0,35.79,9.11,70.38,70.38,0,0,0,61-34q9.6-15.73,9.59-35.92,0-20.41-9.47-36A69.42,69.42,0,0,0,438.94,73.86Zm-3.56,81.55a36.39,36.39,0,0,1-13,14.39A35.11,35.11,0,0,1,403.27,175a35.22,35.22,0,0,1-32.59-19.56,44.34,44.34,0,0,1-4.8-20.79,43.42,43.42,0,0,1,4.8-20.78,37.39,37.39,0,0,1,13.16-14.27,35.63,35.63,0,0,1,19.43-5.29,34.59,34.59,0,0,1,19.07,5.29,37.81,37.81,0,0,1,13,14.27,43.53,43.53,0,0,1,4.79,20.78A44.45,44.45,0,0,1,435.38,155.41Z"/><path d="M604.62,74.11a64,64,0,0,0-34.32-9.35,59.41,59.41,0,0,0-27.18,6A47.4,47.4,0,0,0,527.5,83.24h0A15.52,15.52,0,0,0,512,67.71H479.53V96H497V250.73h32.22V188.56a47.43,47.43,0,0,0,14.15,10.15,61.45,61.45,0,0,0,26.69,5.78q19.43,0,34.68-9.23a66.55,66.55,0,0,0,24.11-25.21,71.94,71.94,0,0,0,8.86-35.43,70.31,70.31,0,0,0-9-35.42A69.5,69.5,0,0,0,604.62,74.11Zm-5.29,81.42a36.81,36.81,0,0,1-13.41,14.27,38.65,38.65,0,0,1-38.62,0A35.93,35.93,0,0,1,534,155.53a44.11,44.11,0,0,1-4.8-20.91,44.35,44.35,0,0,1,4.8-20.78A35.74,35.74,0,0,1,547.3,99.45a36.34,36.34,0,0,1,19.31-5.17,35.8,35.8,0,0,1,19.31,5.29,38,38,0,0,1,13.41,14.27,42.56,42.56,0,0,1,4.92,20.78A43.24,43.24,0,0,1,599.33,155.53Z"/><path d="M764.15,84.4a64,64,0,0,0-19.57-14.59,59.34,59.34,0,0,0-24.13-5.76q-13-.39-27.63,5.43a64.41,64.41,0,0,0-28.06,21,65.76,65.76,0,0,0-13,31.79q-2.34,17.74,5.11,36.48a73.61,73.61,0,0,0,21.09,29.74,65.18,65.18,0,0,0,31.77,14.63q17.85,3,37.06-4.67a73.14,73.14,0,0,0,21.88-13.21,61.74,61.74,0,0,0,14.13-18.06,45.55,45.55,0,0,0,5.15-20.32L759,144.57a33.76,33.76,0,0,1-6.68,16.16q-5.47,7.22-15.76,11.3a36.92,36.92,0,0,1-20.08,2.43,32.33,32.33,0,0,1-17.3-8.88A39.31,39.31,0,0,1,691.41,155L781,119.4a26.63,26.63,0,0,0-1.11-6.44c-.68-2.38-1.44-4.63-2.29-6.77A70.56,70.56,0,0,0,764.15,84.4Zm-76.33,21.09a32.51,32.51,0,0,1,14.82-11.32q9.83-3.92,18.71-1.88a28.87,28.87,0,0,1,15.24,9,31.29,31.29,0,0,1,4.91,7.31L683,131.91a39.94,39.94,0,0,1-.76-8.3A31.19,31.19,0,0,1,687.82,105.49Z"/><path d="M206.06,74.12a100.1,100.1,0,0,0-18.78-30c-1.11-1.24-2.29-2.46-3.47-3.67s-2.42-2.35-3.67-3.47l.13-.06a15,15,0,0,1,18.29,3.69A111.35,111.35,0,0,1,213,62.28c11.65-21.8,16.43-42.46,4-54.92s-33.15-7.7-54.93,4q-5.91,3.16-11.86,6.9a344.71,344.71,0,0,0-32.87,23.93c-4.79,3.94-9.39,7.83-13.62,11.55C91.72,64.18,82.37,73.3,77.83,77.83S64.18,91.72,53.72,103.66c-3.74,4.23-7.63,8.81-11.57,13.64a71.74,71.74,0,0,1,1.12-18.62A70,70,0,0,1,98.68,43.29a408.51,408.51,0,0,1,36.75-28.68l1.15-.78A101.25,101.25,0,0,0,13.83,136.56a94.49,94.49,0,0,0,4.41,13.59,99.94,99.94,0,0,0,18.77,30c1.12,1.24,2.3,2.47,3.47,3.67s2.43,2.36,3.67,3.47l-.19.1a15.21,15.21,0,0,1-18.59-4.07,113.2,113.2,0,0,1-14-21.3c-11.66,21.8-16.44,42.47-4,54.92s33.15,7.7,54.93-4c3.91-2.09,7.89-4.4,11.85-6.89A342.15,342.15,0,0,0,107,182.12c4.8-3.94,9.41-7.83,13.63-11.54,12-10.48,21.29-19.6,25.81-24.12s13.68-13.9,24.14-25.85c3.73-4.22,7.63-8.81,11.54-13.61a70.12,70.12,0,0,1-56.52,74,413.74,413.74,0,0,1-36.73,28.65c-.38.27-.78.53-1.16.78A101.27,101.27,0,0,0,210.46,87.71,94.86,94.86,0,0,0,206.06,74.12Zm-43.4,7.36a464.44,464.44,0,0,1-38.24,43A465,465,0,0,1,81.5,162.63c-3.27,2.56-6.42,4.92-9.47,7.12a70.08,70.08,0,0,1-8.9-7.36l-1.22-1.22a70,70,0,0,1-7.37-8.92c2.21-3.05,4.56-6.19,7.1-9.46A461.56,461.56,0,0,1,99.86,99.86a465.44,465.44,0,0,1,42.93-38.22c3.27-2.56,6.43-4.92,9.48-7.12a72.4,72.4,0,0,1,8.9,7.36l1.22,1.23A67.79,67.79,0,0,1,169.75,72C167.55,75.08,165.19,78.21,162.66,81.48Z"/></svg>